<?xml version="1.0" encoding="utf-8"?>
<!-- Generator: Adobe Illustrator 23.0.4, SVG Export Plug-In . SVG Version: 6.00 Build 0)  -->
<svg version="1.1" id="Layer_1" xmlns="http://www.w3.org/2000/svg" xmlns:xlink="http://www.w3.org/1999/xlink" x="0px" y="0px"
	 viewBox="0 0 453 100" style="enable-background:new 0 0 453 100;" xml:space="preserve">
<style type="text/css">
	.st0{fill:#F16671;}
	.st1{font-family:'LustDisplay-Didone';}
	.st2{font-size:90px;}
</style>
<g id="Layer_3">
	<g>
		<g>
			<path class="st0" d="M432.8,23.8c9.1,10.4,12.5,24.9,9.1,38.3c-0.3,1.2,1.6,1.4,1.9,0.2c3.5-13.9-0.1-28.9-9.5-39.7
				C433.5,21.7,432,22.9,432.8,23.8L432.8,23.8z"/>
		</g>
	</g>
	<g>
		<g>
			<path class="st0" d="M433.4,22.1c-7.9,3.1-15.4,5.4-24,4c-8-1.3-15.8-4.1-23.5-6.7c-7.5-2.5-15.4-4.7-22.8-7.9
				c-2.6-1.1-5.2-2.2-8.1-1.4c-3,0.8-5.4,3-7.9,4.7c-1,0.7,0.2,2.3,1.2,1.5c2.8-1.9,5.8-5,9.4-4.6c3.3,0.4,6.6,2.5,9.8,3.5
				c8,2.6,16,5.5,24,8.1c7,2.2,14.3,4.7,21.6,5.2c7.4,0.5,14.1-1.9,20.9-4.6C435.3,23.5,434.5,21.6,433.4,22.1L433.4,22.1z"/>
		</g>
	</g>
	<g>
		<g>
			<path class="st0" d="M330,25.8c3.4-2.8,6.4-7.5,10.7-9.1c3.7-1.3,8.4,0.4,12,1.3c5,1.3,10,2.8,14.8,4.7c4.7,1.8,9.1,4.2,13.7,6.1
				c1.2,0.5,1.9-1.3,0.7-1.8c-5.1-2.1-9.9-4.7-15-6.6c-5.2-1.9-10.4-3.5-15.8-4.8c-3.5-0.8-7.6-2.1-11.1-0.8
				c-4.5,1.7-7.5,6.4-11.2,9.3C327.8,25.1,329,26.6,330,25.8L330,25.8z"/>
		</g>
	</g>
	<g>
		<g>
			<path class="st0" d="M290.5,32c2.5-2.8,5.6-3,9.1-2.8c3,0.2,5.9,0.3,8.9-0.1c3.2-0.4,6.4-1.2,9.6-1.7c3.6-0.6,7.1-0.8,10.7-1.1
				c3.4-0.3,6.9-1,10.4-1c3.3,0,6.4,1.2,9.6,2.1c6.4,1.9,13.1,2.8,19,6c1.1,0.6,1.8-1.2,0.7-1.8c-6.4-3.5-13.7-4.4-20.6-6.5
				c-2.9-0.9-5.8-1.8-8.9-1.8c-3.8,0-7.7,0.8-11.4,1.1c-3.9,0.3-7.7,0.6-11.6,1.3c-3.6,0.6-7.2,1.5-10.9,1.7
				c-6,0.3-11.8-1.7-16.2,3.3C288.2,31.7,289.7,32.9,290.5,32L290.5,32z"/>
		</g>
	</g>
	<g>
		<g>
			<path class="st0" d="M290.4,29.7c-3.1,3-1.6,6.1,1.6,8.2c4.5,2.8,10,3.6,15.2,4.3c3.6,0.4,7.2,0.7,10.8,0.6
				c3.5-0.1,6.9-0.5,10.4-0.5c3.6,0.1,6.4,1.1,9.7,2.6c3.5,1.6,7.2,2.7,10.8,4c7.4,2.8,14.6,7.9,18,15.3c0.5,1.1,2.3,0.4,1.8-0.7
				c-2.8-6.3-8.6-11.7-14.8-14.6c-4.2-2-8.6-3.2-12.9-4.9c-3.7-1.5-6.7-3.2-10.8-3.5c-3.6-0.3-7.3,0.2-10.9,0.4
				c-4.7,0.2-9.5-0.2-14.1-0.9c-2.3-0.4-18.8-3.5-13.5-8.6C292.5,30.4,291.3,28.8,290.4,29.7L290.4,29.7z"/>
		</g>
	</g>
	<g>
		<g>
			<path class="st0" d="M366.5,63.2c-3.7,8-12.6,8.8-19.8,12c-4,1.8-9.9,5.6-9.8,10.6c0,5.3,6.6,4.4,10,3.5c7.3-1.9,14.4-4,22.1-3.9
				c1.2,0,1.5-1.9,0.2-1.9c-6.5-0.1-13.1,1-19.3,2.9c-2.2,0.7-4.5,1.5-6.8,1.7c-3.3,0.3-5.2-1.6-3.4-4.7c3-5.3,9.3-7,14.6-8.9
				c5.9-2,11.3-4.6,14-10.6C368.9,62.8,367.1,62.1,366.5,63.2L366.5,63.2z"/>
		</g>
	</g>
	<g>
		<g>
			<path class="st0" d="M442,61.3c-5.5,3.1-12.1,3.4-18.2,3.7c-6.2,0.3-12.3,0.6-18.4,2.2c-6.2,1.7-12,4.5-17.3,8
				c-3.1,2.1-5.9,4.4-9.2,6c-3.3,1.5-6.7,2.3-10.4,2.3c-1.3,0-1,2,0.3,1.9c6.6-0.1,12.3-2.7,17.6-6.6c5.8-4.3,12.1-7.7,19-9.6
				c6.6-1.9,13.2-2,20-2.4c5.9-0.3,12.2-0.7,17.5-3.7C443.9,62.5,443.1,60.7,442,61.3L442,61.3z"/>
		</g>
	</g>
	<g>
		<g>
			<path class="st0" d="M317.2,41.2c-2.4,2.8-4.5,6-6.9,8.9c-1.4,1.7-3.2,2.9-4.6,4.6c-2.5,3-1.8,6.6,2.3,7.7
				c4.3,1.2,9.3-0.9,12.5-3.8c5.1-4.7,7.8-12,13.8-15.7c1.1-0.7-0.1-2.2-1.2-1.5c-8.2,5.2-10.8,18.3-21.7,19.4
				c-1.8,0.2-5.8-0.3-5.2-3c0.4-1.6,2.4-3.1,3.5-4.2c3.5-3.3,6-7.5,9.2-11.1C319.5,41.5,318,40.3,317.2,41.2L317.2,41.2z"/>
		</g>
	</g>
	<g>
		<g>
			<path class="st0" d="M336.8,44.3c0.7,3.6,1.6,7.2,1.7,10.9c0,2.2-0.2,4.8-1.6,6.6c-0.8,1.1-2.5,2.6-4,2c-2.4-1-3-5.8-3.4-7.9
				c-0.4-2.5-0.6-5.1-0.9-7.7c-0.1-1.3-2.1-1-1.9,0.3c0.3,3.5,0.6,7,1.5,10.4c0.7,2.6,1.9,6.8,5.1,7.1c3.8,0.3,6.4-4.1,6.9-7.3
				c0.8-4.9-0.6-9.8-1.5-14.5C338.5,42.8,336.6,43.1,336.8,44.3L336.8,44.3z"/>
		</g>
	</g>
	<g>
		<g>
			<path class="st0" d="M341.4,45.5c1.1,4.2,1.4,20.5,9.2,18.5c5-1.3,7-11.4,3.3-14.7c-0.9-0.8-2.1,0.7-1.2,1.6
				c2.5,2.3,0.4,12.3-3.7,11.2c-2.9-0.8-3.6-5.7-4.1-8.1c-0.6-2.9-0.8-5.9-1.6-8.7C343.1,44,341.1,44.3,341.4,45.5L341.4,45.5z"/>
		</g>
	</g>
	<g>
		<g>
			<path class="st0" d="M299.5,29.1c-0.6,3.1-3.5,4-6.3,3.7c-0.5-0.1-1,1-0.5,1c3.7,0.4,7-1.2,7.8-5.1
				C300.6,28.1,299.6,28.7,299.5,29.1L299.5,29.1z"/>
		</g>
	</g>
	<g>
		<g>
			<path class="st0" d="M310.6,52.8c1.6,0.2-1.8,5.5-2.6,6c-0.5,0.3-0.5,1.2,0.2,0.9c1.5-0.9,2.6-2.9,3.2-4.5
				c0.3-0.8,1.3-3.2-0.3-3.4C310.6,51.7,310.1,52.7,310.6,52.8L310.6,52.8z"/>
		</g>
	</g>
	<g>
		<g>
			<path class="st0" d="M350.4,86.5c-1.8-4.1-6.6-4-9.6-1.3c-0.5,0.4-0.2,1.2,0.4,0.7c2.7-2.4,6.8-2.1,8.3,1.4
				C349.8,87.7,350.6,86.9,350.4,86.5L350.4,86.5z"/>
		</g>
	</g>
</g>
<text transform="matrix(1 0 0 1 7.7061 79.2354)" class="st0 st1 st2">about</text>
</svg>
