<?xml version="1.0" encoding="utf-8"?>
<!-- Generator: Adobe Illustrator 23.0.4, SVG Export Plug-In . SVG Version: 6.00 Build 0)  -->
<svg version="1.1" id="Layer_1" xmlns="http://www.w3.org/2000/svg" xmlns:xlink="http://www.w3.org/1999/xlink" x="0px" y="0px"
	 viewBox="0 0 600 100" style="enable-background:new 0 0 600 100;" xml:space="preserve">
<style type="text/css">
	.st0{fill:#F16671;}
	.st1{fill:#045159;}
</style>
<g id="Layer_3">
	<g>
		<g>
			<path class="st0" d="M508.8,25.8c9.1,10.4,12.5,24.9,9.1,38.3c-0.3,1.2,1.6,1.4,1.9,0.2c3.5-13.9-0.1-28.9-9.5-39.7
				C509.5,23.7,508,24.9,508.8,25.8L508.8,25.8z"/>
		</g>
	</g>
	<g>
		<g>
			<path class="st0" d="M509.4,24.1c-7.9,3.1-15.4,5.4-24,4c-8-1.3-15.8-4.1-23.5-6.7c-7.5-2.5-15.4-4.7-22.8-7.9
				c-2.6-1.1-5.2-2.2-8.1-1.4c-3,0.8-5.4,3-7.9,4.7c-1,0.7,0.2,2.3,1.2,1.5c2.8-1.9,5.8-5,9.4-4.6c3.3,0.4,6.6,2.5,9.8,3.5
				c8,2.6,16,5.5,24,8.1c7,2.2,14.3,4.7,21.6,5.2c7.4,0.5,14.1-1.9,20.9-4.6C511.3,25.5,510.5,23.6,509.4,24.1L509.4,24.1z"/>
		</g>
	</g>
	<g>
		<g>
			<path class="st0" d="M406,27.8c3.4-2.8,6.4-7.5,10.7-9.1c3.7-1.3,8.4,0.4,12,1.3c5,1.3,10,2.8,14.8,4.7c4.7,1.8,9.1,4.2,13.7,6.1
				c1.2,0.5,1.9-1.3,0.7-1.8c-5.1-2.1-9.9-4.7-15-6.6c-5.2-1.9-10.4-3.5-15.8-4.8c-3.5-0.8-7.6-2.1-11.1-0.8
				c-4.5,1.7-7.5,6.4-11.2,9.3C403.8,27.1,405,28.6,406,27.8L406,27.8z"/>
		</g>
	</g>
	<g>
		<g>
			<path class="st0" d="M366.5,34c2.5-2.8,5.6-3,9.1-2.8c3,0.2,5.9,0.3,8.9-0.1c3.2-0.4,6.4-1.2,9.6-1.7c3.6-0.6,7.1-0.8,10.7-1.1
				c3.4-0.3,6.9-1,10.4-1c3.3,0,6.4,1.2,9.6,2.1c6.4,1.9,13.1,2.8,19,6c1.1,0.6,1.8-1.2,0.7-1.8c-6.4-3.5-13.7-4.4-20.6-6.5
				c-2.9-0.9-5.8-1.8-8.9-1.8c-3.8,0-7.7,0.8-11.4,1.1c-3.9,0.3-7.7,0.6-11.6,1.3c-3.6,0.6-7.2,1.5-10.9,1.7
				c-6,0.3-11.8-1.7-16.2,3.3C364.2,33.7,365.7,34.9,366.5,34L366.5,34z"/>
		</g>
	</g>
	<g>
		<g>
			<path class="st0" d="M366.4,31.7c-3.1,3-1.6,6.1,1.6,8.2c4.5,2.8,10,3.6,15.2,4.3c3.6,0.4,7.2,0.7,10.8,0.6
				c3.5-0.1,6.9-0.5,10.4-0.5c3.6,0.1,6.4,1.1,9.7,2.6c3.5,1.6,7.2,2.7,10.8,4c7.4,2.8,14.6,7.9,18,15.3c0.5,1.1,2.3,0.4,1.8-0.7
				c-2.8-6.3-8.6-11.7-14.8-14.6c-4.2-2-8.6-3.2-12.9-4.9c-3.7-1.5-6.7-3.2-10.8-3.5c-3.6-0.3-7.3,0.2-10.9,0.4
				c-4.7,0.2-9.5-0.2-14.1-0.9c-2.3-0.4-18.8-3.5-13.5-8.6C368.5,32.4,367.3,30.8,366.4,31.7L366.4,31.7z"/>
		</g>
	</g>
	<g>
		<g>
			<path class="st0" d="M442.5,65.2c-3.7,8-12.6,8.8-19.8,12c-4,1.8-9.9,5.6-9.8,10.6c0,5.3,6.6,4.4,10,3.5c7.3-1.9,14.4-4,22.1-3.9
				c1.2,0,1.5-1.9,0.2-1.9c-6.5-0.1-13.1,1-19.3,2.9c-2.2,0.7-4.5,1.5-6.8,1.7c-3.3,0.3-5.2-1.6-3.4-4.7c3-5.3,9.3-7,14.6-8.9
				c5.9-2,11.3-4.6,14-10.6C444.9,64.8,443.1,64.1,442.5,65.2L442.5,65.2z"/>
		</g>
	</g>
	<g>
		<g>
			<path class="st0" d="M518,63.3c-5.5,3.1-12.1,3.4-18.2,3.7c-6.2,0.3-12.3,0.6-18.4,2.2c-6.2,1.7-12,4.5-17.3,8
				c-3.1,2.1-5.9,4.4-9.2,6c-3.3,1.5-6.7,2.3-10.4,2.3c-1.3,0-1,2,0.3,1.9c6.6-0.1,12.3-2.7,17.6-6.6c5.8-4.3,12.1-7.7,19-9.6
				c6.6-1.9,13.2-2,20-2.4c5.9-0.3,12.2-0.7,17.5-3.7C519.9,64.5,519.1,62.7,518,63.3L518,63.3z"/>
		</g>
	</g>
	<g>
		<g>
			<path class="st0" d="M393.2,43.2c-2.4,2.8-4.5,6-6.9,8.9c-1.4,1.7-3.2,2.9-4.6,4.6c-2.5,3-1.8,6.6,2.3,7.7
				c4.3,1.2,9.3-0.9,12.5-3.8c5.1-4.7,7.8-12,13.8-15.7c1.1-0.7-0.1-2.2-1.2-1.5c-8.2,5.2-10.8,18.3-21.7,19.4
				c-1.8,0.2-5.8-0.3-5.2-3c0.4-1.6,2.4-3.1,3.5-4.2c3.5-3.3,6-7.5,9.2-11.1C395.5,43.5,394,42.3,393.2,43.2L393.2,43.2z"/>
		</g>
	</g>
	<g>
		<g>
			<path class="st0" d="M412.8,46.3c0.7,3.6,1.6,7.2,1.7,10.9c0,2.2-0.2,4.8-1.6,6.6c-0.8,1.1-2.5,2.6-4,2c-2.4-1-3-5.8-3.4-7.9
				c-0.4-2.5-0.6-5.1-0.9-7.7c-0.1-1.3-2.1-1-1.9,0.3c0.3,3.5,0.6,7,1.5,10.4c0.7,2.6,1.9,6.8,5.1,7.1c3.8,0.3,6.4-4.1,6.9-7.3
				c0.8-4.9-0.6-9.8-1.5-14.5C414.5,44.8,412.6,45.1,412.8,46.3L412.8,46.3z"/>
		</g>
	</g>
	<g>
		<g>
			<path class="st0" d="M417.4,47.5c1.1,4.2,1.4,20.5,9.2,18.5c5-1.3,7-11.4,3.3-14.7c-0.9-0.8-2.1,0.7-1.2,1.6
				c2.5,2.3,0.4,12.3-3.7,11.2c-2.9-0.8-3.6-5.7-4.1-8.1c-0.6-2.9-0.8-5.9-1.6-8.7C419.1,46,417.1,46.3,417.4,47.5L417.4,47.5z"/>
		</g>
	</g>
	<g>
		<g>
			<path class="st0" d="M375.5,31.1c-0.6,3.1-3.5,4-6.3,3.7c-0.5-0.1-1,1-0.5,1c3.7,0.4,7-1.2,7.8-5.1
				C376.6,30.1,375.6,30.7,375.5,31.1L375.5,31.1z"/>
		</g>
	</g>
	<g>
		<g>
			<path class="st0" d="M386.6,54.8c1.6,0.2-1.8,5.5-2.6,6c-0.5,0.3-0.5,1.2,0.2,0.9c1.5-0.9,2.6-2.9,3.2-4.5
				c0.3-0.8,1.3-3.2-0.3-3.4C386.6,53.7,386.1,54.7,386.6,54.8L386.6,54.8z"/>
		</g>
	</g>
	<g>
		<g>
			<path class="st0" d="M426.4,88.5c-1.8-4.1-6.6-4-9.6-1.3c-0.5,0.4-0.2,1.2,0.4,0.7c2.7-2.4,6.8-2.1,8.3,1.4
				C425.8,89.7,426.6,88.9,426.4,88.5L426.4,88.5z"/>
		</g>
	</g>
</g>
<g>
	<path class="st1" d="M34.2,33.2c8,0,19.9,2.7,19.9,12.5c0,5.5-4.1,8.4-8.5,8.4c-4,0-7.7-2.4-8-7.6c2-0.9,3.1-3.1,3.1-5.5
		c0-3.8-2.5-7.5-6.8-7.5c-7.2,0-8.4,10.2-8.4,18c0,16.6,6.9,23.4,14.5,23.4c5.8,0,11.3-3.3,14.8-10.8l0.3,0.1
		c-4.4,9.6-12.1,17.5-24.5,17.5c-12.9,0-23.1-9.2-23.1-23.5C7.7,43.4,18.6,33.2,34.2,33.2z"/>
	<path class="st1" d="M85,33.2c14.7,0,26.1,10.3,26.1,24.3c0,14-11.4,24.3-26.1,24.3S58.9,71.5,58.9,57.5
		C58.9,43.4,70.3,33.2,85,33.2z M85,81.5c8.1,0,8.2-9.8,8.2-24c0-14.2-0.1-24-8.2-24c-8.1,0-8.2,9.8-8.2,24
		C76.8,71.7,76.9,81.5,85,81.5z"/>
	<path class="st1" d="M112.8,36.9l0-0.3l26.1-3.5l-0.3,12.6c1.8-7.8,8-12.6,16.2-12.6c7.9,0,14.1,4.4,14.1,13.2v34.4h7.8v0.3h-29.3
		v-0.3h4.9V45.3c0-3.5-0.2-9-4.9-9c-4.9,0-8.7,6.7-8.7,12.1v32.4h4.9v0.3h-29.4v-0.3h7.8V35.7L112.8,36.9z"/>
	<path class="st1" d="M175.9,33.8h1.9c7.4,0,13.2-1.2,17-4.4c2.7-3.4,4.3-8.3,4.3-13.6h0.3v18h9.9v0.3h-9.9v32.7
		c0,3.5,0.3,9.8,5.3,9.8c2.4,0,4.6-1.8,6.6-3.3l0.1,0.2c-5,4.2-11.2,8.3-18.9,8.3c-6.2,0-9.7-5.7-9.7-12.7V34.1h-6.8V33.8z"/>
	<path class="st1" d="M242.6,45.7c0-4.6-0.1-12.2-6.7-12.2c-4.9,0-7.4,3.9-7.4,7.6c0,2.5,1.3,4.6,3.1,5.4c-0.3,5.1-4,7.6-8.1,7.6
		c-4.3,0-8.4-2.7-8.4-8.4c0-11,15.2-12.5,22.6-12.5c11.2,0,21.6,3.3,21.6,13.8v23.8c0,7.9,3.6,7.8,8.3,3.9l0.1,0.2
		c-4.1,3.5-9.3,6.8-15.7,6.8c-5.9,0-9-5.1-9.3-11.3h0c-0.5,5.5-7.7,11.3-17.1,11.3c-7.8,0-13.5-4-13.5-11.8
		c0-14.2,19.9-10.6,30.4-19.6V45.7z M242.6,50.6c-5.8,5.2-11.2,4-11.2,16.6c0,4,0.6,9.6,5.2,9.6c4.2,0,6-5.5,6-7.9V50.6z"/>
	<path class="st1" d="M295.8,33.2c8,0,19.9,2.7,19.9,12.5c0,5.5-4.1,8.4-8.5,8.4c-4,0-7.7-2.4-8-7.6c2-0.9,3.2-3.1,3.2-5.5
		c0-3.8-2.5-7.5-6.8-7.5c-7.2,0-8.4,10.2-8.4,18c0,16.6,6.9,23.4,14.5,23.4c5.8,0,11.3-3.3,14.8-10.8l0.3,0.1
		c-4.4,9.6-12.1,17.5-24.5,17.5c-12.9,0-23.1-9.2-23.1-23.5C269.2,43.4,280.2,33.2,295.8,33.2z"/>
	<path class="st1" d="M318.6,33.8h1.9c7.4,0,13.2-1.2,17-4.4c2.7-3.4,4.3-8.3,4.3-13.6h0.3v18h9.9v0.3h-9.9v32.7
		c0,3.5,0.3,9.8,5.3,9.8c2.4,0,4.6-1.8,6.6-3.3l0.1,0.2c-4.9,4.2-11.2,8.3-18.9,8.3c-6.2,0-9.7-5.7-9.7-12.7V34.1h-6.8V33.8z"/>
</g>
</svg>
