<?xml version="1.0" encoding="utf-8"?>
<!-- Generator: Adobe Illustrator 23.0.4, SVG Export Plug-In . SVG Version: 6.00 Build 0)  -->
<svg version="1.1" id="Layer_1" xmlns="http://www.w3.org/2000/svg" xmlns:xlink="http://www.w3.org/1999/xlink" x="0px" y="0px"
	 viewBox="0 0 259 290" style="enable-background:new 0 0 259 290;" xml:space="preserve">
<style type="text/css">
	.st0{fill:#045159;}
	.st1{fill:#F16671;}
</style>
<g>
	<g>
		<path class="st0" d="M168.1,45.5c5.3,4.2,9,10.3,11.9,16.3c1.4,2.9,5.7,0.4,4.3-2.5c-3.1-6.3-7.1-12.9-12.7-17.3
			C169.1,40,165.5,43.5,168.1,45.5L168.1,45.5z"/>
	</g>
</g>
<g>
	<g>
		<path class="st0" d="M172.1,40.4c4.6,4.6,8.9,9.3,12.4,14.8c1.7,2.7,6,0.2,4.3-2.5c-3.7-5.8-8.3-10.9-13.2-15.8
			C173.4,34.5,169.9,38.1,172.1,40.4L172.1,40.4z"/>
	</g>
</g>
<g>
	<g>
		<path class="st0" d="M138,185.2c1.4,5.5,3.3,11.9,7.6,15.9c1.2,1.1,3,0.9,3.9-0.5c3.3-5.1,6.1-10.5,8.5-16.1
			c0.6-1.5,0.2-3.2-1.5-3.7c-5.3-1.5-10.7-0.2-16.1-0.1c-3.2,0.1-3.2,5.1,0,5c4.9-0.1,10-1.5,14.8-0.1c-0.5-1.2-1-2.4-1.5-3.7
			c-2.4,5.6-5.3,11-8.5,16.1c1.3-0.2,2.6-0.3,3.9-0.5c-3.6-3.4-5.1-9-6.3-13.7C142,180.8,137.2,182.1,138,185.2L138,185.2z"/>
	</g>
</g>
<g>
	<g>
		<path class="st0" d="M52.5,266c5.7,0.8,10.9,3.5,16.5,4.5c3.1,0.6,4.5-4.2,1.3-4.8c-5.6-1.1-10.8-3.7-16.5-4.5
			C50.7,260.7,49.3,265.5,52.5,266L52.5,266z"/>
	</g>
</g>
<g>
	<g>
		<path class="st0" d="M59.3,257.4c0,4.8,0.4,10-1.2,14.6c-1,3.1,3.8,4.4,4.8,1.3c1.7-5.1,1.3-10.7,1.3-16
			C64.3,254.1,59.3,254.1,59.3,257.4L59.3,257.4z"/>
	</g>
</g>
<g>
	<g>
		<path class="st0" d="M65.5,254.5c1.6,3.8,4.6,6.8,6.6,10.3c1.6,2.8,5.9,0.3,4.3-2.5c-2.1-3.6-5-6.5-6.6-10.3
			c-0.5-1.3-2.4-1.5-3.4-0.9C65.1,251.8,64.9,253.3,65.5,254.5L65.5,254.5z"/>
	</g>
</g>
<g>
	<g>
		<path class="st0" d="M70.4,250.4c1.7,3.7,5.1,6.3,7,9.9c1.5,2.8,5.9,0.3,4.3-2.5c-2-3.6-5.3-6.2-7-9.9
			C73.4,244.9,69.1,247.4,70.4,250.4L70.4,250.4z"/>
	</g>
</g>
<g>
	<g>
		<path class="st0" d="M75.8,245.8c1.8,3.9,4.6,7.2,7.4,10.4c2.1,2.4,5.6-1.1,3.5-3.5c-2.5-2.9-5-5.9-6.6-9.4
			C78.7,240.4,74.4,242.9,75.8,245.8L75.8,245.8z"/>
	</g>
</g>
<g>
	<g>
		<path class="st0" d="M61,178.8c3.2,0,3.2-5,0-5C57.8,173.8,57.8,178.8,61,178.8L61,178.8z"/>
	</g>
</g>
<g>
	<g>
		<path class="st0" d="M61.4,189.6c3.2,0,3.2-5,0-5C58.2,184.6,58.2,189.6,61.4,189.6L61.4,189.6z"/>
	</g>
</g>
<g>
	<g>
		<path class="st1" d="M4.5,216.2c3.9,28.7,22.2,54.4,48.1,67.5c2.1,1.1,4-2.1,1.9-3.2c-25.1-12.7-42.6-37.4-46.4-65.3
			C7.8,212.8,4.2,213.8,4.5,216.2L4.5,216.2z"/>
	</g>
</g>
<g>
	<g>
		<path class="st1" d="M6.7,217.3c12.8-6.6,25.3-13.4,34.3-25c9.4-12.1,15.5-26.8,21.5-40.8c6.9-15.9,13.2-32.1,20-48
			c2.6-6.1,3.7-13.7,7.6-19.1c4.3-6,13.1-6.6,19.7-8.3c2.3-0.6,1.3-4.2-1-3.6c-5.9,1.5-12.4,2.2-17.5,5.6c-5,3.3-6.9,8.9-8.7,14.4
			c-5.1,15.9-12.6,31.5-19.1,47c-6.4,15.3-12.7,31.3-21.8,45.2c-9.1,14.1-22.4,21.9-37,29.4C2.7,215.2,4.6,218.4,6.7,217.3
			L6.7,217.3z"/>
	</g>
</g>
<g>
	<g>
		<path class="st1" d="M148,56.9c-9.2,1.6-19.8,0-28.4,4.3c-6.8,3.4-10.4,11-13.8,17.3c-5.2,9.8-9.8,19.8-13.8,30.2
			c-4.2,10.9-6.7,22.2-10.5,33.3c-0.8,2.3,2.8,3.3,3.6,1c3.2-9.6,5.3-19.4,8.8-28.9c3.8-10.4,8.3-20.5,13.3-30.3
			c3.3-6.5,6.9-15.4,13.7-19c8.2-4.3,19.1-2.6,28-4.2C151.3,60.1,150.3,56.5,148,56.9L148,56.9z"/>
	</g>
</g>
<g>
	<g>
		<path class="st1" d="M211.1,4.7c-13.2,0-18,11.1-25.9,19.6c-5,5.4-11,9.8-16.7,14.4c-6.1,4.8-11.7,10.1-17.3,15.5
			c-5.5,5.4-11.6,10.4-17,16c-4.4,4.5-7.1,10.1-9.6,15.8c-6.2,13.8-14.9,26.7-18.2,41.6c-0.5,2.4,3.1,3.4,3.6,1
			c3.1-14.2,11.4-26.2,17.2-39.3c2.6-5.9,5.2-11.8,9.7-16.5c4.9-5.2,10.6-9.7,15.7-14.7c5.2-5,10.3-10.1,15.9-14.7
			c5.3-4.3,10.8-8.2,15.8-12.9c8.4-7.8,13.9-22.1,26.9-22.2C213.5,8.5,213.5,4.7,211.1,4.7L211.1,4.7z"/>
	</g>
</g>
<g>
	<g>
		<path class="st1" d="M208,9.1c10.7-1,5.5,13.9,3,19.4c-5.7,12.7-14.8,25-24.4,35.1c-8,8.4-17.9,16.3-21.6,27.7
			c-2.2,7-4.4,13.8-7.1,20.7c-2.6,6.4-5.3,12.9-6.6,19.7c-2.5,12.5-1.8,26.7,3.6,38.3c1,2.2,4.2,0.3,3.2-1.9
			c-5.7-12.3-5.7-28.1-1.8-40.9c2.3-7.7,5.7-15,8.4-22.5c2.6-7.1,3.8-14.5,8.2-20.8c3.9-5.6,9-10.3,13.8-15.1
			c5-5,9.5-10.4,13.7-16.1c6.9-9.3,14.2-19.7,16.9-31.2c1.8-7.7,0.8-17.2-9.3-16.2C205.6,5.6,205.6,9.3,208,9.1L208,9.1z"/>
	</g>
</g>
<g>
	<g>
		<path class="st1" d="M156,170.3c11.8,3.6,22.5-0.4,32.9-6.2c10-5.7,20.1-12.7,32.2-12c5.1,0.3,12.3,3,8.2,9.3
			c-3.1,4.7-8.9,7.6-13.5,10.5c-11.3,6.9-22.1,15.6-30.7,25.7c-1.6,1.8,1.1,4.5,2.7,2.7c10.2-11.9,22.9-20.1,35.7-28.7
			c6.3-4.2,17.1-14.5,6.6-20.9c-9.2-5.5-22.1-1.1-30.6,3.3c-13.5,6.9-26.2,17.6-42.2,12.8C154.7,166,153.7,169.6,156,170.3
			L156,170.3z"/>
	</g>
</g>
<g>
	<g>
		<path class="st1" d="M54.7,283.2c11.7-4,20.8-13,29.2-21.7c9.6-9.9,18.6-19.8,30.2-27.4c12-7.8,25.3-13,39.2-16.2
			c13.5-3.1,25.5-7.9,34.9-18.4c1.6-1.8-1-4.5-2.7-2.7c-4.8,5.4-10.5,9.6-17.1,12.6c-6.7,3.1-13.9,4.2-20.9,6
			c-12.5,3.3-24.5,8.3-35.4,15.4c-10.5,6.9-19.2,15.6-27.8,24.6c-8.9,9.3-18.3,19.7-30.7,24C51.4,280.4,52.4,284,54.7,283.2
			L54.7,283.2z"/>
	</g>
</g>
<g>
	<g>
		<path class="st1" d="M189.4,65.6c10,0.1,19.9,1.7,29.8,0.7c3.1-0.3,8.1-1.3,10.9,0.6c4.9,3.3-0.9,10.4-3.8,12.9
			c-16.5,14-39.1,0.8-57.8,6.4c-2.3,0.7-1.3,4.3,1,3.6c13.1-3.9,27.4,1.2,40.9,0.1c9.1-0.7,19.3-5.1,23.8-13.6
			c4-7.8-0.4-13.8-8.6-14c-4.3-0.1-8.5,0.9-12.8,0.9c-7.7,0-15.5-1.2-23.2-1.3C187,61.8,187,65.5,189.4,65.6L189.4,65.6z"/>
	</g>
</g>
<g>
	<g>
		<path class="st1" d="M165.1,98.5c6.2,7.9,12,16.9,20.8,22c5.5,3.2,16.1,4.9,20.1-1.7c3.3-5.6-1.7-13-4.9-17.4
			c-4-5.6-8.8-10.5-13.5-15.5c-1.7-1.8-4.3,0.9-2.7,2.7c3.5,3.7,7,7.3,10.2,11.2c3,3.6,9.3,10.7,8,15.9c-0.8,3.2-5,3.9-7.7,3.9
			c-4.5,0-8.5-2.5-11.8-5.3c-6.3-5.2-10.9-12.1-15.9-18.4C166.3,94,163.7,96.6,165.1,98.5L165.1,98.5z"/>
	</g>
</g>
<g>
	<g>
		<path class="st1" d="M160.5,106.8c3.7,5.4,8.2,10.1,12.1,15.2c3,3.9,9,11.3,6.1,16.5c-4.2,7.7-22.1-2.9-22.2-9.8
			c0-2.4-3.8-2.4-3.8,0c0.1,10,18.3,20.1,26.7,14.4c13.5-9.1-10.9-31.1-15.8-38.3C162.4,102.9,159.1,104.8,160.5,106.8L160.5,106.8z
			"/>
	</g>
</g>
<g>
	<g>
		<path class="st1" d="M192.9,19.6c6.8,4,13.8,0.5,18-5.5c0.6-0.9-1.6-0.9-2.1-0.2c-3.4,4.9-8.6,7.7-14.3,4.5
			C193.9,18,191.9,19,192.9,19.6L192.9,19.6z"/>
	</g>
</g>
<g>
	<g>
		<path class="st1" d="M213.8,66.7c-3.1,4.7,12.9,6.6,15.5,5.8c1.3-0.4,0.9-1.8-0.4-1.4c-1.9,0.7-15-1.3-13-4.2
			C216.5,65.9,214.3,65.9,213.8,66.7L213.8,66.7z"/>
	</g>
</g>
<g>
	<g>
		<path class="st1" d="M216.6,172.6c-3.2-7,1.4-13.5,8.7-14.4c1.2-0.2,1.7-1.8,0.2-1.6c-8.2,1-14.9,8.2-11.1,16.6
			C214.8,174.1,217,173.5,216.6,172.6L216.6,172.6z"/>
	</g>
</g>
</svg>
