<?xml version="1.0" encoding="utf-8"?>
<!-- Generator: Adobe Illustrator 23.0.4, SVG Export Plug-In . SVG Version: 6.00 Build 0)  -->
<svg version="1.1" id="Layer_1" xmlns="http://www.w3.org/2000/svg" xmlns:xlink="http://www.w3.org/1999/xlink" x="0px" y="0px"
	 viewBox="0 0 911.3 379.8" style="enable-background:new 0 0 911.3 379.8;" xml:space="preserve">
<style type="text/css">
	.st0{display:none;}
	.st1{display:inline;}
	.st2{display:inline;fill:#F1D0D0;stroke:#000000;}
	.st3{fill:#045159;}
	.st4{fill:#F16671;}
	.st5{fill:none;}
	.st6{fill:#025949;}
	.st7{font-family:'Lust-Didone';}
	.st8{font-size:114.9944px;}
	.st9{letter-spacing:25;}
	.st10{fill:none;stroke:#025949;}
	.st11{font-size:106px;}
	.st12{letter-spacing:8;}
	.st13{fill:none;stroke:#045159;}
	.st14{fill:#002E3F;}
	.st15{font-size:99.9953px;}
	.st16{letter-spacing:2;}
	.st17{fill:none;stroke:#002E3F;}
	.st18{font-size:111.0043px;}
	.st19{letter-spacing:6;}
	.st20{fill:none;stroke:#F16671;}
	.st21{font-size:107px;}
	.st22{letter-spacing:10;}
	.st23{font-size:106.9955px;}
	.st24{letter-spacing:11;}
	.st25{font-family:'LustDisplay-Regular';}
	.st26{font-size:110px;}
	.st27{letter-spacing:13;}
	.st28{letter-spacing:14;}
	.st29{font-size:113.0044px;}
	.st30{letter-spacing:7;}
	.st31{font-size:107.9947px;}
	.st32{letter-spacing:20;}
</style>
<g class="st0">
	<g id="Untitled_x5F_Artwork_6.psd_1_" class="st1">
		
			<image style="overflow:visible;enable-background:new    ;" width="2895" height="3742" id="Background_2_" xlink:href="BE1A37D1145D84BF.png"  transform="matrix(0.4229 0 0 0.4229 -0.2037 -620.851)">
		</image>
		
			<image style="overflow:visible;enable-background:new    ;" width="2895" height="3742" id="Layer_15_2_" xlink:href="BE1A37D1145D84BD.png"  transform="matrix(0.4229 0 0 0.4229 -0.2037 -620.851)">
		</image>
		
			<image style="overflow:visible;enable-background:new    ;" width="2895" height="3742" id="Inserted_Image_2_" xlink:href="BE1A37D1145D84C3.png"  transform="matrix(0.4229 0 0 0.4229 -0.2037 -620.851)">
		</image>
		<g id="New_group_1_">
			
				<image style="overflow:visible;enable-background:new    ;" width="2895" height="3742" id="From_selection_4_" xlink:href="BE1A37D1145D84C5.png"  transform="matrix(0.4229 0 0 0.4229 -0.2037 -620.851)">
			</image>
			
				<image style="overflow:visible;enable-background:new    ;" width="2895" height="3742" id="From_selection_3_" xlink:href="BE1A37D1145D84C7.png"  transform="matrix(0.4229 0 0 0.4229 -0.2037 -620.851)">
			</image>
		</g>
	</g>
</g>
<g id="Layer_7" class="st0">
	<rect class="st2" width="911.3" height="379.8"/>
</g>
<g id="Layer_4">
	<g>
		<g>
			<path class="st3" d="M179.1,55.5c5.4,4.2,9,10.3,11.9,16.3c1.4,2.9,5.8,0.3,4.3-2.5c-3.1-6.3-7.1-12.9-12.7-17.3
				C180.1,50,176.6,53.5,179.1,55.5L179.1,55.5z"/>
		</g>
	</g>
	<g>
		<g>
			<path class="st3" d="M183.1,50.4c4.6,4.6,8.9,9.3,12.4,14.8c1.7,2.7,6.1,0.2,4.3-2.5c-3.7-5.8-8.3-10.9-13.2-15.8
				C184.4,44.5,180.9,48.1,183.1,50.4L183.1,50.4z"/>
		</g>
	</g>
	<g>
		<g>
			<path class="st3" d="M149,195.2c1.4,5.5,3.4,11.9,7.6,15.9c1.2,1.1,3.1,0.9,3.9-0.5c3.3-5.1,6.1-10.5,8.5-16.1
				c0.6-1.5,0.2-3.2-1.5-3.7c-5.3-1.5-10.7-0.2-16.1-0.1c-3.2,0.1-3.2,5.1,0,5c4.9-0.1,10-1.5,14.8-0.1c-0.5-1.2-1-2.4-1.5-3.7
				c-2.4,5.6-5.2,11-8.5,16.1c1.3-0.2,2.6-0.3,3.9-0.5c-3.6-3.4-5.1-9.1-6.3-13.7C153,190.8,148.2,192.1,149,195.2L149,195.2z"/>
		</g>
	</g>
	<g>
		<g>
			<path class="st3" d="M63.5,276c5.7,0.8,10.9,3.5,16.5,4.5c3.1,0.6,4.5-4.2,1.3-4.8c-5.6-1.1-10.8-3.7-16.5-4.5
				C61.7,270.7,60.3,275.5,63.5,276L63.5,276z"/>
		</g>
	</g>
	<g>
		<g>
			<path class="st3" d="M70.3,267.4c0,4.9,0.4,10-1.2,14.6c-1,3.1,3.8,4.4,4.8,1.3c1.7-5.1,1.3-10.7,1.3-16
				C75.3,264.1,70.3,264.1,70.3,267.4L70.3,267.4z"/>
		</g>
	</g>
	<g>
		<g>
			<path class="st3" d="M76.5,264.5c1.6,3.8,4.6,6.8,6.6,10.3c1.6,2.8,5.9,0.3,4.3-2.5c-2.1-3.6-5-6.5-6.6-10.3
				c-0.5-1.2-2.3-1.5-3.4-0.9C76.1,261.8,75.9,263.3,76.5,264.5L76.5,264.5z"/>
		</g>
	</g>
	<g>
		<g>
			<path class="st3" d="M81.4,260.4c1.7,3.7,5.1,6.3,7,9.9c1.5,2.8,5.9,0.3,4.3-2.5c-2-3.6-5.3-6.2-7-9.9
				C84.4,254.9,80.1,257.5,81.4,260.4L81.4,260.4z"/>
		</g>
	</g>
	<g>
		<g>
			<path class="st3" d="M86.8,255.8c1.8,3.9,4.7,7.2,7.4,10.4c2.1,2.5,5.6-1.1,3.5-3.5c-2.5-2.9-5-5.9-6.6-9.4
				C89.7,250.4,85.4,252.9,86.8,255.8L86.8,255.8z"/>
		</g>
	</g>
	<g>
		<g>
			<path class="st3" d="M72,188.8c3.2,0,3.2-5,0-5C68.8,183.8,68.8,188.8,72,188.8L72,188.8z"/>
		</g>
	</g>
	<g>
		<g>
			<path class="st3" d="M72.4,199.6c3.2,0,3.2-5,0-5S69.2,199.6,72.4,199.6L72.4,199.6z"/>
		</g>
	</g>
</g>
<g>
	<g>
		<g>
			<path class="st4" d="M21.5,222.2c3.9,28.7,22.2,54.4,48.1,67.5c2.2,1.1,4.1-2.1,1.9-3.2c-25.1-12.7-42.6-37.4-46.4-65.2
				C24.8,218.8,21.2,219.8,21.5,222.2L21.5,222.2z"/>
		</g>
	</g>
	<g>
		<g>
			<path class="st4" d="M23.8,223.3c12.8-6.6,25.3-13.4,34.3-25.1c9.4-12.1,15.5-26.8,21.5-40.8c6.9-15.9,13.2-32.1,20-48
				c2.6-6.1,3.7-13.7,7.6-19.1c4.3-6,13.1-6.6,19.7-8.3c2.3-0.6,1.4-4.2-1-3.6c-5.9,1.5-12.4,2.2-17.5,5.6c-5,3.3-6.9,8.9-8.7,14.4
				c-5.2,15.9-12.6,31.5-19.1,47c-6.4,15.3-12.7,31.3-21.8,45.2c-9.2,14.1-22.4,21.9-37,29.4C19.7,221.1,21.6,224.4,23.8,223.3
				L23.8,223.3z"/>
		</g>
	</g>
	<g>
		<g>
			<path class="st4" d="M165,62.9c-9.2,1.6-19.8,0-28.4,4.3c-6.8,3.4-10.4,11-13.8,17.3c-5.2,9.8-9.8,19.8-13.8,30.2
				c-4.2,10.9-6.7,22.2-10.5,33.3c-0.8,2.3,2.8,3.3,3.6,1c3.2-9.6,5.3-19.4,8.8-28.9c3.8-10.4,8.3-20.5,13.3-30.3
				c3.3-6.5,6.9-15.4,13.7-19c8.2-4.3,19.1-2.6,28-4.2C168.4,66.1,167.3,62.5,165,62.9L165,62.9z"/>
		</g>
	</g>
	<g>
		<g>
			<path class="st4" d="M228.1,10.7c-13.2,0-18,11.1-25.9,19.6c-5,5.4-11,9.8-16.7,14.4c-6.1,4.8-11.7,10.1-17.3,15.5
				c-5.6,5.4-11.6,10.4-17,16c-4.4,4.5-7.1,10.1-9.6,15.8c-6.1,13.8-14.9,26.7-18.2,41.6c-0.5,2.4,3.1,3.4,3.6,1
				c3.1-14.2,11.4-26.2,17.2-39.3c2.6-5.9,5.2-11.8,9.7-16.5c4.9-5.2,10.6-9.7,15.7-14.7c5.2-5,10.3-10.1,15.9-14.7
				c5.2-4.3,10.8-8.2,15.8-12.9c8.4-7.8,13.9-22.1,26.9-22.2C230.5,14.5,230.6,10.7,228.1,10.7L228.1,10.7z"/>
		</g>
	</g>
	<g>
		<g>
			<path class="st4" d="M225,15.1c10.7-1,5.5,13.9,3,19.4c-5.8,12.7-14.8,25-24.4,35.1c-8,8.4-17.9,16.3-21.6,27.7
				c-2.2,7-4.4,13.8-7.1,20.7c-2.6,6.4-5.3,12.9-6.6,19.7c-2.5,12.5-1.8,26.7,3.6,38.3c1,2.2,4.2,0.3,3.2-1.9
				c-5.7-12.3-5.7-28.1-1.8-40.9c2.4-7.7,5.7-15,8.4-22.5c2.6-7.1,3.8-14.5,8.2-20.8c3.9-5.6,9-10.3,13.8-15.1
				c5-5,9.5-10.4,13.7-16.1c6.9-9.3,14.2-19.7,16.9-31.2c1.8-7.7,0.8-17.2-9.3-16.2C222.6,11.6,222.6,15.3,225,15.1L225,15.1z"/>
		</g>
	</g>
	<g>
		<g>
			<path class="st4" d="M173,176.3c11.8,3.6,22.5-0.4,32.8-6.2c10-5.6,20.1-12.7,32.2-12c5.1,0.3,12.3,3,8.2,9.3
				c-3.1,4.7-8.9,7.6-13.5,10.5c-11.3,6.9-22.1,15.6-30.7,25.7c-1.6,1.8,1.1,4.5,2.6,2.6c10.2-11.9,22.9-20.1,35.7-28.7
				c6.3-4.2,17.1-14.5,6.6-20.9c-9.1-5.5-22.1-1.1-30.6,3.3c-13.5,6.9-26.2,17.6-42.2,12.8C171.7,172,170.7,175.6,173,176.3
				L173,176.3z"/>
		</g>
	</g>
	<g>
		<g>
			<path class="st4" d="M71.7,289.2c11.7-4,20.8-13,29.2-21.7c9.6-9.9,18.6-19.8,30.2-27.4c12-7.8,25.3-13,39.2-16.2
				c13.5-3.1,25.5-7.9,34.9-18.4c1.6-1.8-1-4.4-2.6-2.6c-4.8,5.4-10.5,9.6-17.1,12.6c-6.7,3.1-13.9,4.2-20.9,6
				c-12.5,3.3-24.5,8.3-35.4,15.4c-10.5,6.9-19.2,15.6-27.8,24.6c-8.8,9.3-18.3,19.7-30.7,24C68.4,286.4,69.4,290,71.7,289.2
				L71.7,289.2z"/>
		</g>
	</g>
	<g>
		<g>
			<path class="st4" d="M206.4,71.6c10,0.1,19.9,1.7,29.8,0.7c3.1-0.3,8.1-1.3,10.9,0.6c4.9,3.3-0.9,10.4-3.8,12.9
				c-16.5,14-39.1,0.8-57.8,6.4c-2.3,0.7-1.3,4.3,1,3.6c13.1-3.9,27.4,1.2,40.9,0.2c9.1-0.7,19.3-5.1,23.8-13.6
				c4-7.8-0.4-13.8-8.6-14c-4.3-0.1-8.5,0.9-12.8,0.9c-7.7,0-15.5-1.2-23.2-1.3C204,67.8,204,71.5,206.4,71.6L206.4,71.6z"/>
		</g>
	</g>
	<g>
		<g>
			<path class="st4" d="M182.1,104.5c6.2,7.8,12,16.8,20.8,22c5.5,3.2,16.1,4.9,20.1-1.7c3.4-5.6-1.7-13-4.9-17.4
				c-4-5.6-8.8-10.5-13.5-15.5c-1.7-1.8-4.3,0.9-2.6,2.7c3.5,3.7,7,7.3,10.2,11.2c3,3.6,9.2,10.7,8,15.9c-0.8,3.2-5,3.9-7.7,3.9
				c-4.5,0-8.5-2.5-11.8-5.3c-6.3-5.2-10.9-12.1-15.9-18.4C183.3,100,180.7,102.6,182.1,104.5L182.1,104.5z"/>
		</g>
	</g>
	<g>
		<g>
			<path class="st4" d="M177.5,112.8c3.6,5.4,8.2,10.1,12.1,15.2c2.9,3.9,9,11.3,6.1,16.6c-4.2,7.7-22.1-2.9-22.2-9.8
				c0-2.4-3.8-2.4-3.8,0c0.1,10,18.3,20.1,26.7,14.4c13.5-9.1-10.9-31.1-15.8-38.3C179.4,108.9,176.1,110.8,177.5,112.8L177.5,112.8
				z"/>
		</g>
	</g>
	<g>
		<g>
			<path class="st4" d="M209.9,25.6c6.9,4,13.8,0.5,18-5.5c0.6-0.9-1.6-0.9-2.1-0.2c-3.4,4.9-8.6,7.7-14.2,4.5
				C210.9,24,208.9,25,209.9,25.6L209.9,25.6z"/>
		</g>
	</g>
	<g>
		<g>
			<path class="st4" d="M230.8,72.7c-3.1,4.7,12.9,6.6,15.5,5.8c1.3-0.4,0.9-1.8-0.4-1.4c-1.9,0.7-14.9-1.3-13.1-4.2
				C233.5,71.9,231.3,71.9,230.8,72.7L230.8,72.7z"/>
		</g>
	</g>
	<g>
		<g>
			<path class="st4" d="M233.6,178.6c-3.2-6.9,1.4-13.5,8.7-14.4c1.2-0.1,1.7-1.8,0.2-1.6c-8.2,1-14.9,8.2-11.1,16.6
				C231.8,180.1,234,179.5,233.6,178.6L233.6,178.6z"/>
		</g>
	</g>
</g>
<g id="Layer_3">
	<g>
		<g>
			<path class="st4" d="M851.6,263.1c1.5,26.6-10.2,52.6-31.2,69c-1.9,1.5,0.8,4.1,2.7,2.6c21.7-17,33.9-44.2,32.3-71.6
				C855.2,260.7,851.5,260.6,851.6,263.1L851.6,263.1z"/>
		</g>
	</g>
	<g>
		<g>
			<path class="st4" d="M854.5,261.1c-15.8-4.6-29.8-9.9-41.2-22.2c-10.6-11.4-19.2-24.9-27.8-37.8c-8.5-12.8-18-25.4-25.4-38.8
				c-2.6-4.7-5.4-9.5-10.6-11.7c-5.5-2.3-11.8-1.8-17.6-2.1c-2.4-0.1-2.4,3.6,0,3.8c6.5,0.4,14.7-0.7,19.7,4.1
				c4.6,4.4,7.2,11.6,10.8,16.8c9.2,13.4,17.9,27.2,27.1,40.6c8,11.6,16.2,23.9,26.8,33.4c10.7,9.5,23.7,13.7,37.2,17.6
				C855.8,265.4,856.8,261.8,854.5,261.1L854.5,261.1z"/>
		</g>
	</g>
	<g>
		<g>
			<path class="st4" d="M692.7,145.1c8.5-0.2,18.6-3.9,27-1.2c7.1,2.3,12.3,10.6,16.7,16.1c6.2,7.8,11.8,16.1,17,24.6
				c5,8.2,8.8,17.1,13.6,25.4c1.2,2.1,4.4,0.2,3.2-1.9c-5.2-9.2-9.4-18.8-15-27.8c-5.6-9-11.8-17.6-18.4-25.9
				c-4.4-5.4-9.1-12.1-16-14.2c-8.9-2.8-18.9,0.8-28,1C690.3,141.4,690.3,145.1,692.7,145.1L692.7,145.1z"/>
		</g>
	</g>
	<g>
		<g>
			<path class="st4" d="M625.5,108c7.1-1.3,12,2,17.1,6.5c4.3,3.8,8.7,7.4,13.7,10.4c5.4,3.2,11.1,5.7,16.5,8.7
				c6.1,3.3,11.8,7.2,17.6,11c5.5,3.6,11.7,6.6,16.9,10.7c5,3.9,8.4,9.4,12.1,14.5c7.5,10.5,16.6,19.6,21.9,31.6
				c1,2.2,4.2,0.3,3.2-1.9c-5.6-12.9-15.7-22.8-23.6-34.1c-3.3-4.8-6.7-9.6-11.4-13.2c-5.8-4.5-12.6-7.9-18.7-11.9
				c-6.2-4.1-12.5-8.1-19.1-11.6c-6.3-3.3-12.7-6.2-18.5-10.3c-9.4-6.6-15.9-16.4-28.7-14C622.1,104.8,623.1,108.4,625.5,108
				L625.5,108z"/>
		</g>
	</g>
	<g>
		<g>
			<path class="st4" d="M628,104.3c-8.2,0.8-9.7,7.3-7.1,14.4c3.5,9.6,10.9,17.3,18,24.3c4.9,4.9,10.2,9.5,15.8,13.6
				c5.3,4,11.1,7.3,16.3,11.5c5.4,4.4,8.5,9.3,11.7,15.3c3.5,6.5,7.8,12.5,11.6,18.8c8,13,13,29.2,9.3,44.5c-0.6,2.3,3,3.4,3.6,1
				c3.1-12.9,0.6-27.9-5.3-39.7c-4-7.9-9.3-15.1-13.8-22.7c-3.9-6.6-6.5-12.9-12.2-18c-5.2-4.7-11.3-8.3-17-12.3
				c-7.4-5.2-14.2-11.4-20.5-17.9c-3.1-3.3-24.5-27.6-10.3-29C630.3,107.8,630.3,104.1,628,104.3L628,104.3z"/>
		</g>
	</g>
	<g>
		<g>
			<path class="st4" d="M704.3,245.1c-15,7.9-29.6-1.4-44.3-5c-8.1-2-21.6-3-27.5,4.6c-6.2,8.1,4.8,14.4,11,17
				c13.4,5.6,26.7,10.8,38.2,20c1.9,1.5,4.5-1.2,2.7-2.6c-9.8-7.7-21.1-13.9-32.8-18.2c-4.2-1.6-8.6-3-12.5-5.4
				c-5.4-3.4-6.1-8.5,0.4-11.2c10.8-4.5,22.4,0.2,32.7,3.7c11.5,3.9,22.6,6.3,33.8,0.4C708.3,247.2,706.5,243.9,704.3,245.1
				L704.3,245.1z"/>
		</g>
	</g>
	<g>
		<g>
			<path class="st4" d="M821.5,331.1c-12-1.7-22.4-9.1-32-15.9c-9.8-6.9-19.4-13.6-30.6-18.3c-11.4-4.8-23.5-7.4-35.9-8.2
				c-7.1-0.5-14.1-0.1-21.1-1.8c-6.8-1.6-12.9-4.5-18.5-8.7c-1.9-1.5-3.8,1.8-1.9,3.2c10.2,7.7,22,10.4,34.5,10.7
				c13.8,0.3,27.4,2.6,40.2,7.7c12.2,4.9,22.5,12.5,33.2,19.9c9.4,6.5,19.5,13.3,31,14.9C822.9,335,823.9,331.4,821.5,331.1
				L821.5,331.1z"/>
		</g>
	</g>
	<g>
		<g>
			<path class="st4" d="M655.1,153.5c-7.1,1.4-13.9,3.9-21,5.3c-4.1,0.9-8.4,0.7-12.5,1.6c-7.4,1.7-10.4,7.9-5.6,14.4
				c5.2,6.9,15.3,9.6,23.5,8.8c13.3-1.2,26-9,39.5-7.7c2.4,0.2,2.4-3.5,0-3.8c-18.7-1.8-38,15.3-55.9,4c-3-1.9-8.5-7.3-4.4-10.7
				c2.5-2.1,7.3-2,10.3-2.3c9.2-0.9,18-4.2,27-6.1C658.4,156.6,657.4,153,655.1,153.5L655.1,153.5z"/>
		</g>
	</g>
	<g>
		<g>
			<path class="st4" d="M681.4,181.3c-3.2,6.3-6,12.9-10.3,18.6c-2.6,3.4-5.9,7-10.1,8.2c-2.6,0.7-7,1-8.5-1.7
				c-2.5-4.4,2.2-12.3,4.2-16c2.3-4.4,5-8.6,7.7-12.8c1.3-2.1-2-3.9-3.2-1.9c-3.6,5.7-7.3,11.4-10,17.6c-2.1,4.8-5.1,12.6-0.5,16.8
				c5.5,5,14.5,1.2,19.1-3c7-6.4,10.7-15.6,14.9-23.9C685.7,181,682.5,179.1,681.4,181.3L681.4,181.3z"/>
		</g>
	</g>
	<g>
		<g>
			<path class="st4" d="M687,188.5c-3.3,7.7-22.1,32.8-7.7,38.9c9.1,3.9,24-9.1,22.3-18.5c-0.4-2.4-4-1.4-3.6,1
				c1.2,6.4-13.8,19.3-18.8,12.8c-3.5-4.6,1.2-12.9,3.2-17.1c2.6-5.1,5.6-9.9,7.9-15.2C691.2,188.2,688,186.3,687,188.5L687,188.5z"
				/>
		</g>
	</g>
	<g>
		<g>
			<path class="st4" d="M642.5,114.3c-4.6,4-10.1,1.9-14-1.9c-0.6-0.6-2.7,0.2-2,0.9c5.2,4.9,12.1,6.4,17.8,1.5
				C645.2,114,643.1,113.7,642.5,114.3L642.5,114.3z"/>
		</g>
	</g>
	<g>
		<g>
			<path class="st4" d="M631.5,163.3c2.2,2.2-9.1,6.3-11,6c-1-0.1-2.2,1.3-0.8,1.5c3.4,0.5,7.3-1.4,10.2-3c1.4-0.8,5.7-3.4,3.6-5.4
				C632.8,161.7,630.8,162.6,631.5,163.3L631.5,163.3z"/>
		</g>
	</g>
	<g>
		<g>
			<path class="st4" d="M652.4,261.4c2-8.3-5.3-13.9-13.1-13.3c-1.2,0.1-1.7,1.7-0.2,1.6c7-0.5,12.8,4.7,11.1,11.9
				C649.9,262.6,652.2,262.4,652.4,261.4L652.4,261.4z"/>
		</g>
	</g>
</g>
<g id="Layer_5">
	<rect x="228.1" y="61.2" class="st5" width="96" height="103.5"/>
	<text transform="matrix(0.9781 -0.2079 0.2079 0.9781 252.9921 157.9897)" class="st6 st7 st8 st9">e</text>
	<text transform="matrix(0.9781 -0.2079 0.2079 0.9781 252.9921 157.9897)" class="st10 st7 st8 st9">e</text>
	<rect x="286.4" y="70.3" class="st5" width="98.1" height="139.8"/>
	<text transform="matrix(0.9962 8.720000e-02 -8.720000e-02 0.9962 311.9073 152.1674)" class="st3 st7 st11 st12">l</text>
	<text transform="matrix(0.9962 8.720000e-02 -8.720000e-02 0.9962 311.9073 152.1674)" class="st13 st7 st11 st12">l</text>
	<rect x="336.6" y="69.7" class="st5" width="93.2" height="143"/>
	<text transform="matrix(0.9998 -1.750082e-02 1.750082e-02 0.9998 365.2559 149.0403)" class="st14 st7 st15 st16">i</text>
	<text transform="matrix(0.9998 -1.750082e-02 1.750082e-02 0.9998 365.2559 149.0403)" class="st17 st7 st15 st16">i</text>
	<rect x="396.6" y="56.8" class="st5" width="91.5" height="121"/>
	<text transform="matrix(0.9976 -6.979728e-02 6.979728e-02 0.9976 415.0386 146.5397)" class="st4 st7 st18 st19">s</text>
	<text transform="matrix(0.9976 -6.979728e-02 6.979728e-02 0.9976 415.0386 146.5397)" class="st20 st7 st18 st19">s</text>
	<rect x="457.6" y="64.3" class="st5" width="110.3" height="120.2"/>
	<text transform="matrix(0.9945 0.1045 -0.1045 0.9945 478.7993 145.4933)" class="st6 st7 st21 st22">s</text>
	<text transform="matrix(0.9945 0.1045 -0.1045 0.9945 478.7993 145.4933)" class="st10 st7 st21 st22">s</text>
	<rect x="527" y="61" class="st5" width="98.1" height="126.7"/>
	<text transform="matrix(0.9925 -0.1219 0.1219 0.9925 547.7681 149.3493)" class="st3 st7 st23 st24">a</text>
	<text transform="matrix(0.9925 -0.1219 0.1219 0.9925 547.7681 149.3493)" class="st13 st7 st23 st24">a</text>
</g>
<g id="Layer_6">
	<rect x="302.8" y="160.9" class="st5" width="133.4" height="131.6"/>
	<text transform="matrix(0.9945 0.1045 -0.1045 0.9945 308.6482 241.6043)" class="st3 st25 st26 st27">m</text>
	<text transform="matrix(0.9945 0.1045 -0.1045 0.9945 308.6482 241.6043)" class="st13 st25 st26 st27">m</text>
	<text transform="matrix(0.9945 0.1045 -0.1045 0.9945 436.0184 246.3309)" class="st3 st25 st26 st28"> </text>
	<text transform="matrix(0.9945 0.1045 -0.1045 0.9945 436.0184 246.3309)" class="st13 st25 st26 st28"> </text>
	<rect x="399.7" y="154.8" class="st5" width="125.9" height="136.5"/>
	<text transform="matrix(0.9976 -6.979728e-02 6.979728e-02 0.9976 430.2946 246.4382)" class="st14 st7 st29 st30">o</text>
	<text transform="matrix(0.9976 -6.979728e-02 6.979728e-02 0.9976 430.2946 246.4382)" class="st17 st7 st29 st30">o</text>
	<rect x="482" y="158.3" class="st5" width="107.9" height="126.7"/>
	<text transform="matrix(0.9976 -6.979728e-02 6.979728e-02 0.9976 508.1061 249.6655)" class="st4 st7 st29 st30">s</text>
	<text transform="matrix(0.9976 -6.979728e-02 6.979728e-02 0.9976 508.1061 249.6655)" class="st20 st7 st29 st30">s</text>
	<rect x="538.4" y="157.9" class="st5" width="140.6" height="145.5"/>
	<text transform="matrix(0.9781 0.2079 -0.2079 0.9781 570.2959 236.0758)" class="st6 st7 st31 st32">s</text>
	<text transform="matrix(0.9781 0.2079 -0.2079 0.9781 570.2959 236.0758)" class="st10 st7 st31 st32">s</text>
</g>
</svg>
