<?xml version="1.0" encoding="utf-8"?>
<!-- Generator: Adobe Illustrator 23.0.4, SVG Export Plug-In . SVG Version: 6.00 Build 0)  -->
<svg version="1.1" id="Layer_1" xmlns="http://www.w3.org/2000/svg" xmlns:xlink="http://www.w3.org/1999/xlink" x="0px" y="0px"
	 viewBox="0 0 541 100" style="enable-background:new 0 0 541 100;" xml:space="preserve">
<style type="text/css">
	.st0{fill:#F16671;}
	.st1{fill:#025949;}
</style>
<g id="Layer_3">
	<g>
		<g>
			<path class="st0" d="M18,23.8c0.8-0.9-0.7-2.1-1.5-1.2C7.1,33.4,3.5,48.5,7,62.3c0.3,1.2,2.2,1,1.9-0.2
				C5.5,48.7,8.9,34.2,18,23.8L18,23.8z"/>
		</g>
	</g>
	<g>
		<g>
			<path class="st0" d="M17.5,22.1c-1.2-0.5-1.9,1.3-0.7,1.8c6.8,2.7,13.5,5.1,20.9,4.6c7.4-0.5,14.6-3,21.6-5.2
				c8.1-2.6,16-5.5,24-8.1c3.2-1,6.5-3.1,9.8-3.5c3.6-0.4,6.7,2.7,9.4,4.6c1,0.7,2.2-0.8,1.2-1.5c-2.5-1.7-4.9-3.9-7.9-4.7
				c-2.8-0.8-5.5,0.3-8.1,1.4c-7.3,3.2-15.2,5.3-22.8,7.9c-7.7,2.6-15.5,5.3-23.5,6.7C32.9,27.5,25.4,25.2,17.5,22.1L17.5,22.1z"/>
		</g>
	</g>
	<g>
		<g>
			<path class="st0" d="M120.9,25.8c1,0.8,2.2-0.8,1.2-1.5c-3.6-3-6.6-7.6-11.2-9.3c-3.6-1.3-7.6-0.1-11.1,0.8
				C94.4,17,89.1,18.6,84,20.5c-5.2,1.9-9.9,4.5-15,6.6c-1.2,0.5-0.4,2.3,0.7,1.8c4.6-1.9,9-4.3,13.7-6.1c4.8-1.9,9.8-3.4,14.8-4.7
				c3.6-0.9,8.3-2.6,12-1.3C114.5,18.3,117.4,23,120.9,25.8L120.9,25.8z"/>
		</g>
	</g>
	<g>
		<g>
			<path class="st0" d="M160.3,32c0.8,0.9,2.4-0.2,1.6-1.2c-4.5-5.1-10.3-3.1-16.2-3.3c-3.7-0.2-7.3-1-10.9-1.7
				c-3.8-0.7-7.7-1-11.6-1.3c-3.8-0.3-7.7-1.1-11.4-1.1c-3.1,0-6,0.9-8.9,1.8c-6.9,2.1-14.2,3-20.6,6.5c-1.1,0.6-0.4,2.4,0.7,1.8
				c5.9-3.2,12.6-4.1,19-6c3.1-0.9,6.2-2.1,9.6-2.1c3.4,0,6.9,0.7,10.4,1c3.6,0.3,7.2,0.5,10.7,1.1c3.2,0.5,6.4,1.3,9.6,1.7
				c3,0.4,5.9,0.3,8.9,0.1C154.7,29,157.8,29.2,160.3,32L160.3,32z"/>
		</g>
	</g>
	<g>
		<g>
			<path class="st0" d="M160.4,29.7c-0.9-0.9-2.1,0.7-1.2,1.5c5.4,5.1-11.1,8.3-13.5,8.6c-4.7,0.7-9.4,1.1-14.1,0.9
				c-3.6-0.2-7.3-0.6-10.9-0.4c-4,0.3-7.1,2-10.8,3.5c-4.3,1.7-8.7,2.9-12.9,4.9c-6.2,3-12,8.3-14.8,14.6c-0.5,1.1,1.3,1.9,1.8,0.7
				c3.3-7.5,10.6-12.5,18-15.3c3.6-1.4,7.3-2.5,10.8-4c3.2-1.4,6.1-2.5,9.7-2.6c3.5-0.1,6.9,0.4,10.4,0.5c3.6,0.1,7.2-0.2,10.8-0.6
				c5.1-0.6,10.7-1.4,15.2-4.3C162.1,35.8,163.5,32.6,160.4,29.7L160.4,29.7z"/>
		</g>
	</g>
	<g>
		<g>
			<path class="st0" d="M84.3,63.2c-0.5-1.1-2.3-0.4-1.8,0.7c2.7,6,8.1,8.6,14,10.6c5.3,1.8,11.6,3.6,14.6,8.9
				c1.8,3.2-0.1,5-3.4,4.7c-2.4-0.2-4.6-1-6.8-1.7c-6.2-1.9-12.8-3-19.3-2.9c-1.3,0-1,1.9,0.2,1.9c7.6-0.1,14.8,2,22.1,3.9
				c3.4,0.9,9.9,1.8,10-3.5c0-5-5.8-8.9-9.8-10.6C96.9,72.1,87.9,71.2,84.3,63.2L84.3,63.2z"/>
		</g>
	</g>
	<g>
		<g>
			<path class="st0" d="M8.8,61.3C7.7,60.7,7,62.5,8,63.1c5.3,3,11.6,3.4,17.5,3.7c6.8,0.3,13.4,0.5,20,2.4c6.9,2,13.2,5.4,19,9.6
				c5.2,3.9,11,6.5,17.6,6.6c1.2,0,1.5-1.9,0.3-1.9c-3.6-0.1-7.1-0.8-10.4-2.3c-3.4-1.6-6.2-3.9-9.2-6c-5.3-3.6-11.1-6.4-17.3-8
				C39.3,65.6,33.2,65.3,27,65C20.8,64.7,14.3,64.5,8.8,61.3L8.8,61.3z"/>
		</g>
	</g>
	<g>
		<g>
			<path class="st0" d="M133.7,41.2c-0.8-1-2.4,0.2-1.6,1.2c3.1,3.6,5.7,7.8,9.2,11.1c1.1,1.1,3.1,2.6,3.5,4.2
				c0.6,2.7-3.4,3.2-5.2,3c-10.9-1.1-13.5-14.2-21.7-19.4c-1.1-0.7-2.3,0.9-1.2,1.5c5.9,3.7,8.7,11,13.8,15.7
				c3.1,2.9,8.1,5,12.5,3.8c4-1.1,4.8-4.7,2.3-7.7c-1.4-1.7-3.2-3-4.6-4.6C138.1,47.3,136.1,44.1,133.7,41.2L133.7,41.2z"/>
		</g>
	</g>
	<g>
		<g>
			<path class="st0" d="M114,44.3c0.2-1.2-1.7-1.5-1.9-0.3c-0.9,4.7-2.3,9.7-1.5,14.5c0.5,3.2,3.1,7.6,6.9,7.3
				c3.3-0.3,4.5-4.4,5.1-7.1c0.9-3.4,1.1-6.9,1.5-10.4c0.1-1.2-1.8-1.5-1.9-0.3c-0.2,2.6-0.4,5.1-0.9,7.7c-0.4,2.2-1,6.9-3.4,7.9
				c-1.5,0.6-3.2-0.9-4-2c-1.4-1.8-1.6-4.4-1.6-6.6C112.4,51.5,113.3,47.9,114,44.3L114,44.3z"/>
		</g>
	</g>
	<g>
		<g>
			<path class="st0" d="M109.4,45.5c0.3-1.2-1.6-1.5-1.9-0.2c-0.7,2.9-1,5.8-1.6,8.7c-0.5,2.4-1.2,7.3-4.1,8.1
				c-4.1,1.1-6.2-9-3.7-11.2c0.9-0.8-0.2-2.4-1.2-1.6c-3.7,3.3-1.7,13.4,3.3,14.7C108,66,108.3,49.7,109.4,45.5L109.4,45.5z"/>
		</g>
	</g>
	<g>
		<g>
			<path class="st0" d="M151.3,29.1c-0.1-0.4-1-1-0.9-0.4c0.8,3.8,4.1,5.4,7.8,5.1c0.5-0.1-0.1-1.1-0.5-1
				C154.8,33.1,151.9,32.3,151.3,29.1L151.3,29.1z"/>
		</g>
	</g>
	<g>
		<g>
			<path class="st0" d="M140.2,52.8c0.5-0.1,0-1.1-0.5-1c-1.5,0.2-0.6,2.6-0.3,3.4c0.6,1.6,1.7,3.6,3.2,4.5c0.7,0.4,0.6-0.6,0.2-0.9
				C142,58.2,138.6,53,140.2,52.8L140.2,52.8z"/>
		</g>
	</g>
	<g>
		<g>
			<path class="st0" d="M100.4,86.5c-0.2,0.5,0.6,1.3,0.9,0.8c1.6-3.5,5.6-3.8,8.3-1.4c0.6,0.5,0.9-0.3,0.4-0.7
				C107,82.4,102.3,82.4,100.4,86.5L100.4,86.5z"/>
		</g>
	</g>
</g>
<g>
	<path class="st1" d="M176.6,31.1l-0.1-0.6l25.9-3.4l-0.3,12.2c1.9-6,5.5-12.2,14-12.2c6.6,0,13,3.8,13,11.2c0,5.3-4,10.6-9.8,10.6
		c-4.1,0-7.7-2.4-8-7.6c3.1-0.7,4.5-3.8,4.5-6.6c0-2.2-1.1-5.4-4.2-5.4c-5,0-8,6.5-9.4,11.8v33.2h9.6v0.6h-34.1v-0.6h7.8V29.9
		L176.6,31.1z"/>
	<path class="st1" d="M249.5,46.1c0.2,9,3.2,22.6,15.3,22.6c6.3,0,12.6-5.4,15.4-12l0.5,0.3c-4.4,9.6-13.1,18.5-26.1,18.5
		c-12.9,0-23.1-9.2-23.1-23.5c0-14.8,10.9-25,27.1-25c14.8,0,23,7.6,20.2,19.1H249.5z M249.5,45.2h13.3c1.4-5.6,1.4-17.5-5-17.5
		C250.7,27.7,249.5,37.5,249.5,45.2z"/>
	<path class="st1" d="M285.3,56.2h0.6c2,15,13.9,18.6,21.1,18.6c6.4,0,11.2-2.8,11.2-6.4c0-9.5-32.9-8.6-32.9-26.4
		c0-11.1,12.7-15,22-15c6.7,0,11.1,2,13.4,2c1.9,0,2.9-0.8,3.6-1.9l0.9,15.8h-0.6c-1.1-11.2-10.3-15.2-17.3-15.2
		c-5.9,0-10,2.8-10,6.4c0,9.9,32.3,7.4,32.3,25.2c0,9.6-9.4,16.2-22.6,16.2c-8.4,0-14.6-2.6-17.2-2.6c-1.9,0-2.8,1.4-3.5,2.4
		L285.3,56.2z"/>
	<path class="st1" d="M352.8,75.6c-7.9,0-14.1-4.4-14.1-13.2V30l-8.5,1.1l-0.1-0.6l25.3-3.4v35.7c0,3.5,0.2,9,4.9,9
		c5,0,8.7-6.7,8.7-12.1V29.9l-6.7,0.9l-0.1-0.6l23.5-3.1v37.1c0,4.6,1.7,9.5,8.1,4.1l0.4,0.5c-4.1,3.5-9.3,6.8-15.7,6.8
		c-5.6,0-9.6-4.9-9.3-11.9C367.3,70.2,361,75.6,352.8,75.6z"/>
	<path class="st1" d="M392.6,31.1l-0.1-0.6l25.9-3.4l-0.3,11.9c1.7-6.5,7.5-11.9,15.7-11.9c7.5,0,13,4,13.7,11.8
		c1.8-6.5,7.5-11.8,15.7-11.8c7.9,0,13.8,4.4,13.8,13.2v34h7.8v0.6h-29.3v-0.6h4.9V39.8c0-3.5-0.1-9-4.5-9s-8,6.5-8.2,11.7v31.8h4.9
		v0.6h-26.4v-0.6h4.9V39.8c0-3.5-0.1-9-4.5-9c-4.5,0-8.2,6.7-8.2,12.1v31.4h4.9v0.6h-29.4v-0.6h7.8V29.9L392.6,31.1z"/>
	<path class="st1" d="M505.5,46.1c0.2,9,3.2,22.6,15.3,22.6c6.3,0,12.6-5.4,15.4-12l0.5,0.3c-4.4,9.6-13.1,18.5-26.1,18.5
		c-12.9,0-23.1-9.2-23.1-23.5c0-14.8,10.9-25,27.1-25c14.8,0,23,7.6,20.2,19.1H505.5z M505.5,45.2h13.3c1.4-5.6,1.4-17.5-4.9-17.5
		C506.7,27.7,505.5,37.5,505.5,45.2z"/>
</g>
</svg>
