<?xml version="1.0" encoding="utf-8"?>
<!-- Generator: Adobe Illustrator 23.0.4, SVG Export Plug-In . SVG Version: 6.00 Build 0)  -->
<svg version="1.1" id="Layer_1" xmlns="http://www.w3.org/2000/svg" xmlns:xlink="http://www.w3.org/1999/xlink" x="0px" y="0px"
	 viewBox="0 0 451 98" style="enable-background:new 0 0 451 98;" xml:space="preserve">
<style type="text/css">
	.st0{fill:#F16671;}
	.st1{fill:#045159;}
</style>
<g id="Layer_2">
	<g id="Layer_3">
		<g>
			<g>
				<path class="st0" d="M19,22.8c0.8-0.9-0.7-2.1-1.5-1.2C8.1,32.4,4.5,47.5,8,61.3c0.3,1.2,2.2,1,1.9-0.2
					C6.5,47.7,9.9,33.2,19,22.8L19,22.8z"/>
			</g>
		</g>
		<g>
			<g>
				<path class="st0" d="M18.5,21.1c-1.2-0.5-1.9,1.3-0.7,1.8c6.8,2.7,13.5,5.1,20.9,4.6c7.4-0.5,14.6-3,21.6-5.2
					c8.1-2.6,16-5.5,24-8.1c3.2-1,6.5-3.1,9.8-3.5c3.6-0.4,6.7,2.7,9.4,4.6c1,0.7,2.2-0.8,1.2-1.5c-2.5-1.7-4.9-3.9-7.9-4.7
					c-2.8-0.8-5.5,0.3-8.1,1.4c-7.3,3.2-15.2,5.3-22.8,7.9c-7.7,2.6-15.5,5.3-23.5,6.7C33.9,26.5,26.4,24.2,18.5,21.1L18.5,21.1z"/>
			</g>
		</g>
		<g>
			<g>
				<path class="st0" d="M121.9,24.8c1,0.8,2.2-0.8,1.2-1.5c-3.6-3-6.6-7.6-11.2-9.3c-3.6-1.3-7.6-0.1-11.1,0.8
					C95.4,16,90.1,17.6,85,19.5c-5.2,1.9-9.9,4.5-15,6.6c-1.2,0.5-0.4,2.3,0.7,1.8c4.6-1.9,9-4.3,13.7-6.1c4.8-1.9,9.8-3.4,14.8-4.7
					c3.6-0.9,8.3-2.6,12-1.3C115.5,17.3,118.4,22,121.9,24.8L121.9,24.8z"/>
			</g>
		</g>
		<g>
			<g>
				<path class="st0" d="M161.3,31c0.8,0.9,2.4-0.2,1.6-1.2c-4.5-5.1-10.3-3.1-16.2-3.3c-3.7-0.2-7.3-1-10.9-1.7
					c-3.8-0.7-7.7-1-11.6-1.3c-3.8-0.3-7.7-1.1-11.4-1.1c-3.1,0-6,0.9-8.9,1.8c-6.9,2.1-14.2,3-20.6,6.5c-1.1,0.6-0.4,2.4,0.7,1.8
					c5.9-3.2,12.6-4.1,19-6c3.1-0.9,6.2-2.1,9.6-2.1c3.4,0,6.9,0.7,10.4,1c3.6,0.3,7.2,0.5,10.7,1.1c3.2,0.5,6.4,1.3,9.6,1.7
					c3,0.4,5.9,0.3,8.9,0.1C155.7,28,158.8,28.2,161.3,31L161.3,31z"/>
			</g>
		</g>
		<g>
			<g>
				<path class="st0" d="M161.4,28.7c-0.9-0.9-2.1,0.7-1.2,1.5c5.4,5.1-11.1,8.3-13.5,8.6c-4.7,0.7-9.4,1.1-14.1,0.9
					c-3.6-0.2-7.3-0.6-10.9-0.4c-4,0.3-7.1,2-10.8,3.5c-4.3,1.7-8.7,2.9-12.9,4.9c-6.2,3-12,8.3-14.8,14.6c-0.5,1.1,1.3,1.9,1.8,0.7
					c3.3-7.5,10.6-12.5,18-15.3c3.6-1.4,7.3-2.5,10.8-4c3.2-1.4,6.1-2.5,9.7-2.6c3.5-0.1,6.9,0.4,10.4,0.5c3.6,0.1,7.2-0.2,10.8-0.6
					c5.1-0.6,10.7-1.4,15.2-4.3C163.1,34.8,164.5,31.6,161.4,28.7L161.4,28.7z"/>
			</g>
		</g>
		<g>
			<g>
				<path class="st0" d="M85.3,62.2c-0.5-1.1-2.3-0.4-1.8,0.7c2.7,6,8.1,8.6,14,10.6c5.3,1.8,11.6,3.6,14.6,8.9
					c1.8,3.2-0.1,5-3.4,4.7c-2.4-0.2-4.6-1-6.8-1.7c-6.2-1.9-12.8-3-19.3-2.9c-1.3,0-1,1.9,0.2,1.9c7.6-0.1,14.8,2,22.1,3.9
					c3.4,0.9,9.9,1.8,10-3.5c0-5-5.8-8.9-9.8-10.6C97.9,71.1,88.9,70.2,85.3,62.2L85.3,62.2z"/>
			</g>
		</g>
		<g>
			<g>
				<path class="st0" d="M9.8,60.3C8.7,59.7,8,61.5,9,62.1c5.3,3,11.6,3.4,17.5,3.7c6.8,0.3,13.4,0.5,20,2.4c6.9,2,13.2,5.4,19,9.6
					c5.2,3.9,11,6.5,17.6,6.6c1.2,0,1.5-1.9,0.3-1.9c-3.6-0.1-7.1-0.8-10.4-2.3c-3.4-1.6-6.2-3.9-9.2-6c-5.3-3.6-11.1-6.4-17.3-8
					C40.3,64.6,34.2,64.3,28,64C21.8,63.7,15.3,63.5,9.8,60.3L9.8,60.3z"/>
			</g>
		</g>
		<g>
			<g>
				<path class="st0" d="M134.7,40.2c-0.8-1-2.4,0.2-1.6,1.2c3.1,3.6,5.7,7.8,9.2,11.1c1.1,1.1,3.1,2.6,3.5,4.2
					c0.6,2.7-3.4,3.2-5.2,3c-10.9-1.1-13.5-14.2-21.7-19.4c-1.1-0.7-2.3,0.9-1.2,1.5c5.9,3.7,8.7,11,13.8,15.7
					c3.1,2.9,8.1,5,12.5,3.8c4-1.1,4.8-4.7,2.3-7.7c-1.4-1.7-3.2-3-4.6-4.6C139.1,46.3,137.1,43.1,134.7,40.2L134.7,40.2z"/>
			</g>
		</g>
		<g>
			<g>
				<path class="st0" d="M115,43.3c0.2-1.2-1.7-1.5-1.9-0.3c-0.9,4.7-2.3,9.7-1.5,14.5c0.5,3.2,3.1,7.6,6.9,7.3
					c3.3-0.3,4.5-4.4,5.1-7.1c0.9-3.4,1.1-6.9,1.5-10.4c0.1-1.2-1.8-1.5-1.9-0.3c-0.2,2.6-0.4,5.1-0.9,7.7c-0.4,2.2-1,6.9-3.4,7.9
					c-1.5,0.6-3.2-0.9-4-2c-1.4-1.8-1.6-4.4-1.6-6.6C113.4,50.5,114.3,46.9,115,43.3L115,43.3z"/>
			</g>
		</g>
		<g>
			<g>
				<path class="st0" d="M110.4,44.5c0.3-1.2-1.6-1.5-1.9-0.2c-0.7,2.9-1,5.8-1.6,8.7c-0.5,2.4-1.2,7.3-4.1,8.1
					c-4.1,1.1-6.2-9-3.7-11.2c0.9-0.8-0.2-2.4-1.2-1.6c-3.7,3.3-1.7,13.4,3.3,14.7C109,65,109.3,48.7,110.4,44.5L110.4,44.5z"/>
			</g>
		</g>
		<g>
			<g>
				<path class="st0" d="M152.3,28.1c-0.1-0.4-1-1-0.9-0.4c0.8,3.8,4.1,5.4,7.8,5.1c0.5-0.1-0.1-1.1-0.5-1
					C155.8,32.1,152.9,31.3,152.3,28.1L152.3,28.1z"/>
			</g>
		</g>
		<g>
			<g>
				<path class="st0" d="M141.2,51.8c0.5-0.1,0-1.1-0.5-1c-1.5,0.2-0.6,2.6-0.3,3.4c0.6,1.6,1.7,3.6,3.2,4.5
					c0.7,0.4,0.6-0.6,0.2-0.9C143,57.2,139.6,52,141.2,51.8L141.2,51.8z"/>
			</g>
		</g>
		<g>
			<g>
				<path class="st0" d="M101.4,85.5c-0.2,0.5,0.6,1.3,0.9,0.8c1.6-3.5,5.6-3.8,8.3-1.4c0.6,0.5,0.9-0.3,0.4-0.7
					C108,81.4,103.3,81.4,101.4,85.5L101.4,85.5z"/>
			</g>
		</g>
	</g>
	<g>
		<path class="st1" d="M264.6,31h-9v-0.3h16.6V31H265l-23.3,49.5l-16.6-33.8l-15.9,33.8L184.9,31h-6.7v-0.3H210V31h-6l13.9,30.3
			l7.1-15L217.4,31h-4.5v-0.3h31.4V31h-7.9l13.9,30.3L264.6,31z"/>
		<path class="st1" d="M294.7,30.1c14.7,0,26.1,10.3,26.1,24.3c0,14-11.4,24.3-26.1,24.3s-26.1-10.3-26.1-24.3
			C268.6,40.4,280.1,30.1,294.7,30.1z M294.7,78.4c8.1,0,8.2-9.8,8.2-24c0-14.2-0.1-24-8.2-24c-8.1,0-8.2,9.8-8.2,24
			C286.6,68.7,286.6,78.4,294.7,78.4z"/>
		<path class="st1" d="M322.6,33.9l0-0.3l26.1-3.5l-0.3,12.1c1.9-6,5.5-12.1,14-12.1c6.6,0,13,3.8,13,11.2c0,5.3-4,10.6-9.8,10.6
			c-4,0-7.7-2.4-8-7.6c3.1-0.7,4.5-3.8,4.5-6.6c0-2.2-1.4-5.7-4.5-5.7c-4.6,0-7.6,5.8-9.2,10.9v34.7h9.6V78H324v-0.3h7.8V32.7
			L322.6,33.9z"/>
		<path class="st1" d="M400.8,51.5L422.7,31h-12v-0.3h22.8V31h-10.3l-22.1,20.7c21.2-10.8,26.9,4.7,30.4,13.5
			c4.5,11.5,5.4,12.7,10,12.5V78c-4.6,0.3-8.3,0.6-12.9,0.6c-11.3,0-12.8-1.8-16-12.4c-1.8-5.7-3.1-18.4-11.8-14v25.6h4.9V78h-29.4
			v-0.3h7.8V9.5l-9.2,1.2l0-0.3l25.9-3.5V51.5z"/>
	</g>
</g>
</svg>
